<?xml version="1.0" encoding="UTF-8"?>
<svg xmlns="http://www.w3.org/2000/svg" xmlns:xlink="http://www.w3.org/1999/xlink" width="80px" height="50px" viewBox="0 0 80 50" version="1.1">
<g id="surface1">
<path style=" stroke:none;fill-rule:nonzero;fill:rgb(59.215689%,69.01961%,0.392157%);fill-opacity:1;" d="M 25 0.0664062 C 25.089844 0.0703125 25.179688 0.0703125 25.273438 0.0703125 C 26.171875 0.0703125 27.0625 0.0859375 27.953125 0.199219 C 28.015625 0.207031 28.070312 0.210938 28.125 0.21875 C 31 0.570312 33.800781 1.417969 36.375 2.75 C 36.4375 2.78125 36.5 2.816406 36.5625 2.847656 C 38.074219 3.617188 39.5 4.570312 40.804688 5.65625 C 40.867188 5.703125 40.929688 5.757812 40.992188 5.804688 C 41.21875 5.984375 41.429688 6.175781 41.640625 6.375 C 41.75 6.476562 41.859375 6.578125 41.976562 6.679688 C 42.140625 6.824219 42.296875 6.976562 42.453125 7.132812 C 42.484375 7.164062 42.507812 7.1875 42.539062 7.21875 C 42.597656 7.277344 42.65625 7.335938 42.714844 7.398438 C 42.804688 7.484375 42.894531 7.574219 42.984375 7.664062 C 43.039062 7.722656 43.097656 7.78125 43.15625 7.835938 C 43.195312 7.875 43.195312 7.875 43.234375 7.917969 C 43.410156 8.09375 43.574219 8.277344 43.734375 8.46875 C 43.773438 8.511719 43.816406 8.558594 43.855469 8.605469 C 44.339844 9.171875 44.804688 9.746094 45.234375 10.351562 C 45.253906 10.382812 45.273438 10.414062 45.296875 10.445312 C 45.316406 10.472656 45.335938 10.5 45.355469 10.53125 C 45.375 10.554688 45.390625 10.578125 45.40625 10.601562 C 45.445312 10.664062 45.445312 10.664062 45.445312 10.703125 C 44.578125 10.796875 44.578125 10.796875 44.324219 10.652344 C 44.179688 10.523438 44.078125 10.359375 43.984375 10.1875 C 43.90625 10.054688 43.804688 9.933594 43.710938 9.8125 C 43.671875 9.765625 43.636719 9.71875 43.601562 9.671875 C 43.480469 9.523438 43.351562 9.375 43.21875 9.234375 C 43.148438 9.15625 43.078125 9.074219 43.007812 8.992188 C 42.652344 8.585938 42.28125 8.195312 41.898438 7.8125 C 41.875 7.789062 41.859375 7.773438 41.835938 7.75 C 41.601562 7.515625 41.367188 7.285156 41.113281 7.070312 C 41.046875 7.007812 40.984375 6.953125 40.921875 6.894531 C 40.710938 6.703125 40.496094 6.527344 40.277344 6.351562 C 40.234375 6.3125 40.1875 6.273438 40.140625 6.238281 C 39.570312 5.773438 38.972656 5.351562 38.363281 4.941406 C 38.335938 4.925781 38.3125 4.90625 38.289062 4.890625 C 37.695312 4.492188 37.085938 4.132812 36.460938 3.792969 C 36.421875 3.773438 36.382812 3.75 36.34375 3.730469 C 33.300781 2.082031 29.859375 1.132812 25.820312 0.953125 C 25.765625 0.949219 25.714844 0.949219 25.660156 0.949219 C 25.488281 0.949219 25.316406 0.949219 25.140625 0.949219 C 25.113281 0.949219 25.085938 0.949219 25.054688 0.949219 C 24.160156 0.945312 23.277344 0.960938 22.390625 1.078125 C 22.335938 1.085938 22.277344 1.09375 22.21875 1.101562 C 19.742188 1.40625 17.316406 2.085938 15.054688 3.148438 C 14.953125 3.195312 14.855469 3.242188 14.757812 3.289062 C 14.257812 3.515625 13.78125 3.78125 13.308594 4.054688 C 13.222656 4.105469 13.140625 4.152344 13.054688 4.203125 C 12.203125 4.679688 11.398438 5.234375 10.625 5.828125 C 10.601562 5.847656 10.582031 5.863281 10.558594 5.882812 C 10.28125 6.097656 10.007812 6.320312 9.738281 6.550781 C 9.601562 6.667969 9.460938 6.78125 9.320312 6.894531 C 9.15625 7.03125 9 7.179688 8.851562 7.335938 C 8.773438 7.414062 8.695312 7.484375 8.609375 7.554688 C 8.414062 7.726562 8.226562 7.914062 8.039062 8.105469 C 8.003906 8.140625 7.96875 8.171875 7.9375 8.210938 C 7.757812 8.382812 7.585938 8.566406 7.425781 8.757812 C 7.34375 8.851562 7.257812 8.945312 7.171875 9.039062 C 7.011719 9.214844 6.859375 9.398438 6.707031 9.582031 C 6.636719 9.671875 6.5625 9.757812 6.492188 9.851562 C 5.652344 10.867188 4.90625 11.984375 4.265625 13.140625 C 4.242188 13.175781 4.222656 13.210938 4.203125 13.25 C 3.363281 14.757812 2.703125 16.328125 2.195312 17.96875 C 2.1875 18.011719 2.1875 18.011719 2.171875 18.054688 C 1.632812 19.808594 1.335938 21.613281 1.203125 23.445312 C 1.203125 23.480469 1.199219 23.519531 1.195312 23.558594 C 0.972656 26.679688 1.445312 29.882812 6.492188 40.136719 C 6.550781 40.210938 6.609375 40.28125 6.671875 40.359375 C 6.816406 40.539062 6.96875 40.710938 7.125 40.882812 C 7.195312 40.960938 7.265625 41.046875 7.335938 41.125 C 7.65625 41.492188 7.988281 41.84375 8.328125 42.1875 C 8.359375 42.21875 8.390625 42.25 8.417969 42.277344 C 8.582031 42.441406 8.75 42.597656 8.921875 42.75 C 9.023438 42.835938 9.125 42.929688 9.226562 43.023438 C 9.445312 43.230469 9.675781 43.421875 9.910156 43.609375 C 9.953125 43.648438 10 43.683594 10.042969 43.71875 C 12.433594 45.671875 15.171875 47.082031 18.101562 48.015625 C 18.171875 48.039062 18.242188 48.0625 18.3125 48.085938 C 20.25 48.703125 22.363281 49.042969 24.394531 49.046875 C 24.445312 49.050781 24.5 49.050781 24.554688 49.050781 C 24.722656 49.050781 24.890625 49.050781 25.0625 49.050781 C 25.089844 49.050781 25.117188 49.050781 25.148438 49.050781 C 26.050781 49.054688 26.941406 49.035156 27.835938 48.921875 C 27.867188 48.917969 27.890625 48.914062 27.921875 48.914062 C 31.078125 48.523438 34.226562 47.546875 36.976562 45.925781 C 37.015625 45.90625 37.054688 45.882812 37.089844 45.859375 C 38.242188 45.1875 39.335938 44.429688 40.359375 43.570312 C 40.382812 43.550781 40.40625 43.53125 40.429688 43.511719 C 40.703125 43.28125 40.96875 43.046875 41.234375 42.796875 C 41.320312 42.71875 41.40625 42.648438 41.492188 42.570312 C 41.710938 42.378906 41.914062 42.171875 42.117188 41.964844 C 42.1875 41.898438 42.257812 41.828125 42.328125 41.757812 C 42.554688 41.53125 42.773438 41.300781 42.980469 41.054688 C 43.023438 41.007812 43.066406 40.957031 43.109375 40.90625 C 43.476562 40.484375 43.828125 40.058594 44.164062 39.617188 C 44.207031 39.554688 44.207031 39.554688 44.253906 39.496094 C 44.289062 39.445312 44.289062 39.445312 44.324219 39.390625 C 44.414062 39.296875 44.414062 39.296875 44.523438 39.273438 C 44.589844 39.273438 44.589844 39.273438 44.65625 39.277344 C 44.722656 39.28125 44.722656 39.28125 44.792969 39.28125 C 44.867188 39.28125 44.867188 39.28125 44.9375 39.285156 C 44.988281 39.285156 45.035156 39.289062 45.085938 39.289062 C 45.207031 39.289062 45.328125 39.292969 45.445312 39.296875 C 45.347656 39.476562 45.246094 39.640625 45.125 39.800781 C 45.09375 39.84375 45.0625 39.882812 45.027344 39.925781 C 45.011719 39.945312 44.996094 39.96875 44.976562 39.992188 C 44.929688 40.054688 44.882812 40.117188 44.832031 40.183594 C 44.628906 40.453125 44.417969 40.710938 44.199219 40.96875 C 44.105469 41.078125 44.015625 41.191406 43.929688 41.304688 C 43.484375 41.847656 42.976562 42.339844 42.484375 42.835938 C 42.460938 42.863281 42.429688 42.890625 42.40625 42.914062 C 42.140625 43.183594 41.875 43.445312 41.589844 43.6875 C 41.542969 43.734375 41.496094 43.773438 41.445312 43.816406 C 41.140625 44.085938 40.832031 44.34375 40.507812 44.59375 C 40.4375 44.648438 40.363281 44.710938 40.289062 44.769531 C 39.484375 45.421875 38.59375 46 37.695312 46.523438 C 37.664062 46.546875 37.632812 46.5625 37.59375 46.585938 C 37.351562 46.726562 37.109375 46.867188 36.859375 47.003906 C 36.816406 47.03125 36.816406 47.03125 36.769531 47.054688 C 35.710938 47.648438 34.578125 48.109375 33.441406 48.523438 C 33.414062 48.53125 33.390625 48.539062 33.367188 48.550781 C 31.632812 49.179688 29.828125 49.570312 28 49.789062 C 27.921875 49.796875 27.839844 49.8125 27.757812 49.820312 C 25.988281 50.039062 24.078125 50.027344 22.3125 49.800781 C 22.253906 49.792969 22.195312 49.785156 22.140625 49.78125 C 19.414062 49.4375 16.796875 48.679688 14.320312 47.484375 C 14.257812 47.453125 14.257812 47.453125 14.191406 47.421875 C 13.554688 47.113281 12.9375 46.773438 12.335938 46.40625 C 12.28125 46.375 12.28125 46.375 12.226562 46.34375 C 11.203125 45.726562 10.226562 45.023438 9.3125 44.25 C 9.273438 44.214844 9.230469 44.179688 9.1875 44.144531 C 8.929688 43.929688 8.679688 43.707031 8.4375 43.476562 C 8.375 43.421875 8.316406 43.367188 8.253906 43.3125 C 7.992188 43.09375 7.757812 42.851562 7.515625 42.609375 C 7.445312 42.535156 7.367188 42.460938 7.292969 42.382812 C 7.054688 42.148438 6.828125 41.910156 6.609375 41.65625 C 6.554688 41.589844 6.492188 41.523438 6.4375 41.460938 C 6.28125 41.289062 6.136719 41.117188 5.992188 40.9375 C 5.921875 40.847656 5.851562 40.757812 5.773438 40.671875 C 4.953125 39.671875 4.226562 38.582031 3.589844 37.460938 C 3.570312 37.429688 3.554688 37.402344 3.539062 37.371094 C 3.421875 37.164062 3.304688 36.953125 3.191406 36.742188 C 3.164062 36.691406 3.164062 36.691406 3.136719 36.640625 C 1.554688 33.703125 0.636719 30.398438 0.328125 26.636719 C 0.328125 26.609375 0.328125 26.582031 0.324219 26.554688 C 0.296875 26.046875 0.28125 25.542969 0.28125 25.035156 C 0.28125 25 0.28125 24.960938 0.28125 24.925781 C 0.289062 22.328125 0.6875 19.761719 1.484375 17.292969 C 1.5 17.242188 1.515625 17.195312 1.53125 17.148438 C 2.445312 14.335938 3.882812 11.613281 5.773438 9.34375 C 5.832031 9.273438 5.890625 9.203125 5.945312 9.132812 C 6.507812 8.445312 7.109375 7.800781 7.738281 7.167969 C 7.757812 7.148438 7.78125 7.125 7.804688 7.101562 C 8.046875 6.851562 8.296875 6.617188 8.558594 6.390625 C 8.621094 6.332031 8.6875 6.273438 8.75 6.214844 C 8.957031 6.023438 9.171875 5.847656 9.390625 5.671875 C 9.4375 5.632812 9.484375 5.597656 9.523438 5.5625 C 12.445312 3.179688 15.929688 1.492188 21.914062 0.25 C 21.960938 0.242188 21.960938 0.242188 22.007812 0.234375 C 23 0.105469 23.996094 0.0625 25 0.0664062 Z M 25 0.0664062 "/>
<path style=" stroke:none;fill-rule:nonzero;fill:rgb(0%,45.09804%,85.09804%);fill-opacity:1;" d="M 16.976562 15.40625 C 17.226562 15.546875 17.371094 15.714844 17.5 15.976562 C 17.648438 15.921875 17.765625 15.851562 17.894531 15.761719 C 18.578125 15.316406 19.507812 15.265625 20.289062 15.417969 C 20.769531 15.53125 21.210938 15.742188 21.554688 16.09375 C 21.589844 16.125 21.589844 16.125 21.625 16.164062 C 21.640625 16.179688 21.65625 16.195312 21.675781 16.214844 C 21.714844 16.179688 21.714844 16.179688 21.757812 16.144531 C 22.570312 15.453125 23.417969 15.3125 24.457031 15.375 C 25.03125 15.4375 25.632812 15.703125 26.007812 16.148438 C 26.4375 16.703125 26.539062 17.28125 26.535156 17.96875 C 26.535156 18.019531 26.535156 18.070312 26.535156 18.117188 C 26.53125 18.773438 26.476562 19.429688 26.425781 20.078125 C 26.226562 22.273438 26.226562 22.273438 26.832031 24.359375 C 26.882812 24.480469 26.882812 24.480469 26.890625 24.589844 C 26.828125 24.703125 26.765625 24.734375 26.644531 24.78125 C 26.511719 24.8125 26.382812 24.816406 26.242188 24.8125 C 26.214844 24.8125 26.1875 24.8125 26.15625 24.8125 C 25.5625 24.796875 24.9375 24.710938 24.472656 24.3125 C 24.425781 24.257812 24.425781 24.257812 24.378906 24.203125 C 24.355469 24.175781 24.335938 24.148438 24.3125 24.125 C 23.859375 23.585938 23.859375 22.917969 23.898438 22.242188 C 23.976562 21.492188 24.140625 20.75 24.308594 20.015625 C 24.6875 18.507812 24.6875 18.507812 24.347656 17.054688 C 24.179688 16.828125 23.992188 16.679688 23.714844 16.625 C 23.347656 16.578125 23.007812 16.585938 22.695312 16.796875 C 22.355469 17.074219 22.226562 17.367188 22.179688 17.796875 C 22.171875 17.933594 22.160156 18.070312 22.152344 18.210938 C 22.148438 18.242188 22.148438 18.277344 22.144531 18.3125 C 22.046875 19.902344 22.085938 21.515625 22.222656 23.101562 C 22.28125 23.8125 22.28125 23.8125 22.070312 24.082031 C 21.691406 24.515625 20.984375 24.6875 20.433594 24.730469 C 20.390625 24.734375 20.34375 24.734375 20.300781 24.734375 C 20.257812 24.738281 20.214844 24.742188 20.171875 24.742188 C 20 24.710938 19.945312 24.65625 19.847656 24.523438 C 19.839844 24.398438 19.839844 24.398438 19.867188 24.257812 C 19.875 24.203125 19.882812 24.144531 19.894531 24.085938 C 19.898438 24.054688 19.90625 24.023438 19.910156 23.992188 C 19.945312 23.773438 19.964844 23.550781 19.988281 23.328125 C 19.996094 23.265625 19.996094 23.265625 20.003906 23.195312 C 20.085938 22.453125 20.09375 21.710938 20.09375 20.96875 C 20.09375 20.917969 20.09375 20.867188 20.09375 20.820312 C 20.09375 20.566406 20.09375 20.3125 20.09375 20.058594 C 20.09375 19.796875 20.09375 19.539062 20.097656 19.273438 C 20.097656 19.070312 20.097656 18.871094 20.097656 18.667969 C 20.097656 18.570312 20.097656 18.476562 20.101562 18.378906 C 20.101562 18.242188 20.101562 18.109375 20.101562 17.976562 C 20.101562 17.9375 20.101562 17.898438 20.101562 17.859375 C 20.097656 17.523438 20.054688 17.1875 19.8125 16.9375 C 19.789062 16.90625 19.765625 16.878906 19.734375 16.851562 C 19.515625 16.664062 19.328125 16.632812 19.050781 16.640625 C 19.023438 16.640625 18.992188 16.636719 18.957031 16.636719 C 18.660156 16.640625 18.460938 16.746094 18.242188 16.945312 C 17.679688 17.53125 17.8125 18.554688 17.8125 19.3125 C 17.8125 19.386719 17.8125 19.464844 17.8125 19.539062 C 17.8125 19.703125 17.8125 19.863281 17.8125 20.023438 C 17.8125 20.226562 17.8125 20.429688 17.8125 20.632812 C 17.8125 20.792969 17.8125 20.953125 17.8125 21.109375 C 17.8125 21.1875 17.8125 21.257812 17.8125 21.335938 C 17.8125 21.898438 17.8125 22.457031 17.902344 23.015625 C 18 23.664062 18 23.664062 17.878906 23.9375 C 17.398438 24.445312 16.816406 24.691406 16.117188 24.726562 C 16.070312 24.726562 16.015625 24.730469 15.96875 24.730469 C 15.890625 24.734375 15.890625 24.734375 15.8125 24.734375 C 15.582031 24.710938 15.582031 24.710938 15.476562 24.601562 C 15.414062 24.289062 15.503906 23.945312 15.546875 23.636719 C 15.617188 23.125 15.664062 22.613281 15.703125 22.101562 C 15.703125 22.070312 15.703125 22.035156 15.707031 22 C 15.726562 21.777344 15.738281 21.550781 15.75 21.328125 C 15.753906 21.296875 15.757812 21.265625 15.757812 21.234375 C 15.804688 20.476562 15.804688 19.710938 15.804688 18.949219 C 15.804688 18.796875 15.804688 18.640625 15.804688 18.484375 C 15.8125 17.5625 15.792969 16.671875 15.648438 15.765625 C 15.609375 15.484375 15.609375 15.484375 15.6875 15.382812 C 15.988281 15.160156 16.65625 15.265625 16.976562 15.40625 Z M 16.976562 15.40625 "/>
<path style=" stroke:none;fill-rule:nonzero;fill:rgb(0%,45.09804%,85.09804%);fill-opacity:1;" d="M 45.117188 15.085938 C 45.171875 15.085938 45.222656 15.085938 45.273438 15.085938 C 45.40625 15.09375 45.40625 15.09375 45.484375 15.175781 C 45.5 15.421875 45.460938 15.640625 45.414062 15.878906 C 45.34375 16.246094 45.296875 16.609375 45.257812 16.984375 C 45.253906 17.03125 45.25 17.078125 45.242188 17.125 C 45.183594 17.789062 45.164062 18.453125 45.164062 19.117188 C 45.164062 19.195312 45.164062 19.277344 45.164062 19.359375 C 45.164062 19.53125 45.164062 19.703125 45.164062 19.875 C 45.167969 20.144531 45.167969 20.414062 45.167969 20.6875 C 45.171875 21.460938 45.171875 22.230469 45.171875 23 C 45.175781 23.429688 45.175781 23.859375 45.179688 24.28125 C 45.179688 24.554688 45.179688 24.820312 45.179688 25.09375 C 45.179688 25.257812 45.179688 25.429688 45.179688 25.59375 C 45.179688 25.671875 45.179688 25.75 45.179688 25.828125 C 45.1875 27.046875 44.976562 28.304688 44.171875 29.273438 C 44.132812 29.320312 44.132812 29.320312 44.09375 29.375 C 43.734375 29.816406 43.226562 30.101562 42.703125 30.3125 C 42.664062 30.328125 42.628906 30.34375 42.59375 30.359375 C 42.09375 30.542969 41.445312 30.671875 40.914062 30.59375 C 40.773438 30.5 40.738281 30.4375 40.671875 30.289062 C 40.675781 30.191406 40.675781 30.191406 40.75 30.09375 C 40.84375 30.007812 40.949219 29.945312 41.0625 29.882812 C 41.902344 29.386719 42.335938 28.429688 42.585938 27.515625 C 42.855469 26.460938 42.976562 25.375 43.054688 24.289062 C 43.058594 24.234375 43.0625 24.171875 43.066406 24.117188 C 43.148438 23.03125 43.148438 21.949219 43.148438 20.863281 C 43.148438 20.828125 43.148438 20.796875 43.148438 20.757812 C 43.148438 19.953125 43.140625 19.144531 43.125 18.335938 C 43.121094 18.304688 43.121094 18.273438 43.117188 18.234375 C 43.117188 18.046875 43.109375 17.859375 43.101562 17.671875 C 43.101562 17.5625 43.097656 17.457031 43.09375 17.351562 C 43.09375 17.277344 43.09375 17.203125 43.089844 17.132812 C 43.085938 17.097656 43.085938 17.0625 43.085938 17.03125 C 43.085938 16.84375 43.085938 16.84375 42.984375 16.695312 C 42.671875 16.546875 42.273438 16.570312 41.953125 16.679688 C 41.453125 16.890625 41.109375 17.289062 40.898438 17.789062 C 40.441406 18.992188 40.238281 20.558594 40.746094 21.777344 C 40.871094 22.046875 41.023438 22.234375 41.296875 22.351562 C 41.546875 22.4375 41.796875 22.441406 42.039062 22.34375 C 42.1875 22.285156 42.242188 22.269531 42.382812 22.324219 C 42.5 22.4375 42.476562 22.53125 42.480469 22.6875 C 42.476562 23.257812 42.398438 23.714844 42.003906 24.148438 C 41.617188 24.515625 41.070312 24.5625 40.5625 24.5625 C 40.039062 24.53125 39.570312 24.394531 39.199219 24 C 38.683594 23.375 38.464844 22.640625 38.371094 21.84375 C 38.367188 21.820312 38.363281 21.792969 38.359375 21.765625 C 38.246094 20.90625 38.289062 19.972656 38.492188 19.128906 C 38.5 19.09375 38.507812 19.058594 38.515625 19.023438 C 38.789062 17.890625 39.320312 16.601562 40.34375 15.960938 C 41.203125 15.445312 42.085938 15.203125 43.085938 15.421875 C 43.199219 15.449219 43.308594 15.484375 43.421875 15.523438 C 43.570312 15.578125 43.664062 15.589844 43.816406 15.535156 C 43.894531 15.476562 43.96875 15.417969 44.042969 15.359375 C 44.359375 15.140625 44.742188 15.089844 45.117188 15.085938 Z M 45.117188 15.085938 "/>
<path style=" stroke:none;fill-rule:nonzero;fill:rgb(0%,45.09804%,85.09804%);fill-opacity:1;" d="M 34.554688 15.414062 C 34.730469 15.585938 34.78125 15.785156 34.804688 16.03125 C 34.8125 17.683594 33.96875 19.21875 33.230469 20.648438 C 30.992188 24.675781 30.992188 24.675781 30.820312 29.15625 C 30.859375 29.28125 30.902344 29.40625 30.945312 29.53125 C 30.992188 29.679688 30.984375 29.765625 30.9375 29.914062 C 30.738281 30.046875 30.546875 30.007812 30.320312 29.96875 C 29.695312 29.835938 28.9375 29.546875 28.566406 29 C 28.390625 28.703125 28.382812 28.398438 28.453125 28.0625 C 28.601562 27.46875 28.890625 26.917969 29.164062 26.367188 C 29.734375 25.21875 29.992188 24.453125 29.585938 23.195312 C 29.476562 22.875 29.363281 22.558594 29.25 22.242188 C 29.203125 22.105469 29.152344 21.96875 29.101562 21.835938 C 29.042969 21.664062 28.984375 21.5 28.921875 21.335938 C 28.8125 21.023438 28.703125 20.71875 28.597656 20.414062 C 28.535156 20.234375 28.472656 20.054688 28.410156 19.878906 C 28.382812 19.796875 28.351562 19.714844 28.324219 19.632812 C 27.75 17.902344 27.75 17.902344 26.609375 16.546875 C 26.523438 16.453125 26.523438 16.453125 26.503906 16.3125 C 26.523438 16.171875 26.523438 16.171875 26.578125 16.101562 C 27.140625 15.714844 27.875 15.523438 28.554688 15.453125 C 28.609375 15.449219 28.609375 15.449219 28.671875 15.441406 C 28.859375 15.429688 28.992188 15.4375 29.148438 15.554688 C 29.414062 15.804688 29.5 16.21875 29.609375 16.554688 C 29.617188 16.578125 29.625 16.609375 29.632812 16.632812 C 29.765625 17.054688 29.886719 17.476562 30 17.898438 C 30.179688 18.585938 30.386719 19.265625 30.609375 19.945312 C 30.625 20.007812 30.625 20.007812 30.648438 20.078125 C 30.789062 20.503906 30.929688 20.929688 31.109375 21.339844 C 31.125 21.367188 31.132812 21.398438 31.148438 21.429688 C 31.207031 21.5625 31.261719 21.671875 31.375 21.765625 C 31.546875 21.523438 31.683594 21.273438 31.800781 21 C 31.820312 20.960938 31.835938 20.921875 31.851562 20.882812 C 31.992188 20.546875 32.109375 20.210938 32.226562 19.867188 C 32.242188 19.816406 32.257812 19.765625 32.273438 19.71875 C 32.4375 19.214844 32.546875 18.738281 32.539062 18.203125 C 32.542969 18.140625 32.542969 18.140625 32.542969 18.078125 C 32.539062 17.617188 32.457031 17.179688 32.171875 16.8125 C 32.007812 16.65625 31.820312 16.578125 31.613281 16.492188 C 31.574219 16.453125 31.574219 16.453125 31.53125 16.414062 C 31.539062 16.25 31.550781 16.164062 31.65625 16.035156 C 31.78125 15.925781 31.914062 15.847656 32.0625 15.773438 C 32.101562 15.753906 32.101562 15.753906 32.144531 15.734375 C 32.757812 15.441406 33.925781 15.03125 34.554688 15.414062 Z M 34.554688 15.414062 "/>
<path style=" stroke:none;fill-rule:nonzero;fill:rgb(0%,45.09804%,85.09804%);fill-opacity:1;" d="M 49.710938 15.445312 C 49.804688 15.445312 49.898438 15.441406 49.988281 15.441406 C 50.761719 15.4375 51.601562 15.558594 52.242188 16.015625 C 52.296875 16.046875 52.296875 16.046875 52.351562 16.085938 C 52.636719 16.367188 52.863281 16.734375 52.882812 17.144531 C 52.882812 17.175781 52.882812 17.207031 52.882812 17.238281 C 52.882812 17.292969 52.882812 17.292969 52.882812 17.351562 C 52.882812 17.390625 52.882812 17.429688 52.882812 17.46875 C 52.882812 17.507812 52.882812 17.554688 52.882812 17.59375 C 52.882812 17.6875 52.882812 17.777344 52.882812 17.867188 C 52.882812 18.015625 52.878906 18.15625 52.878906 18.304688 C 52.878906 18.71875 52.875 19.128906 52.875 19.539062 C 52.875 19.792969 52.875 20.046875 52.875 20.296875 C 52.875 20.394531 52.875 20.492188 52.871094 20.585938 C 52.796875 22.367188 52.796875 22.367188 53.390625 24 C 53.476562 24.121094 53.476562 24.121094 53.5 24.25 C 53.476562 24.359375 53.476562 24.359375 53.390625 24.425781 C 53.0625 24.585938 52.660156 24.574219 52.304688 24.570312 C 52.242188 24.574219 52.242188 24.574219 52.179688 24.574219 C 51.796875 24.578125 51.390625 24.539062 51.089844 24.28125 C 50.859375 24.03125 50.839844 23.820312 50.84375 23.496094 C 50.84375 23.457031 50.84375 23.417969 50.84375 23.378906 C 50.84375 23.25 50.84375 23.125 50.84375 22.996094 C 50.84375 22.90625 50.84375 22.820312 50.84375 22.730469 C 50.851562 21.78125 50.867188 20.835938 50.890625 19.890625 C 50.210938 19.765625 49.5 20.070312 48.945312 20.445312 C 48.609375 20.6875 48.382812 20.984375 48.28125 21.390625 C 48.234375 21.722656 48.261719 22.023438 48.429688 22.324219 C 48.570312 22.488281 48.71875 22.625 48.9375 22.652344 C 49.242188 22.664062 49.523438 22.574219 49.78125 22.40625 C 49.902344 22.382812 49.957031 22.390625 50.0625 22.460938 C 50.238281 22.710938 50.234375 23.027344 50.199219 23.324219 C 50.132812 23.671875 49.9375 23.953125 49.660156 24.164062 C 48.992188 24.5625 48.351562 24.664062 47.59375 24.523438 C 47.101562 24.398438 46.625 24.136719 46.359375 23.695312 C 45.960938 22.992188 45.875 22.277344 46.042969 21.484375 C 46.28125 20.617188 46.820312 19.984375 47.589844 19.535156 C 48.277344 19.148438 48.976562 18.960938 49.734375 18.78125 C 50.050781 18.703125 50.351562 18.617188 50.652344 18.492188 C 50.679688 18.480469 50.710938 18.46875 50.742188 18.460938 C 50.851562 18.382812 50.863281 18.304688 50.890625 18.171875 C 50.902344 18.03125 50.90625 17.894531 50.90625 17.757812 C 50.90625 17.71875 50.90625 17.683594 50.90625 17.648438 C 50.90625 17.359375 50.851562 17.148438 50.707031 16.902344 C 50.460938 16.667969 50.1875 16.632812 49.859375 16.632812 C 49.601562 16.644531 49.34375 16.695312 49.15625 16.878906 C 49.140625 16.898438 49.121094 16.914062 49.101562 16.933594 C 49.078125 16.933594 49.050781 16.933594 49.023438 16.933594 C 48.996094 16.984375 48.96875 17.039062 48.945312 17.09375 C 48.921875 17.136719 48.898438 17.179688 48.878906 17.226562 C 48.792969 17.460938 48.820312 17.640625 48.871094 17.875 C 48.898438 18.015625 48.90625 18.078125 48.863281 18.210938 C 48.683594 18.390625 48.46875 18.4375 48.222656 18.460938 C 48.195312 18.46875 48.164062 18.46875 48.132812 18.472656 C 47.765625 18.507812 47.378906 18.476562 47.078125 18.25 C 46.847656 18.039062 46.699219 17.851562 46.664062 17.53125 C 46.65625 17.03125 46.804688 16.679688 47.117188 16.292969 C 47.132812 16.265625 47.15625 16.242188 47.175781 16.21875 C 47.757812 15.554688 48.898438 15.4375 49.710938 15.445312 Z M 49.710938 15.445312 "/>
<path style=" stroke:none;fill-rule:nonzero;fill:rgb(0%,45.09804%,85.09804%);fill-opacity:1;" d="M 63.726562 15.898438 C 64.007812 16.140625 64.199219 16.40625 64.367188 16.734375 C 64.382812 16.765625 64.402344 16.804688 64.421875 16.835938 C 64.648438 17.375 64.601562 18.140625 64.390625 18.679688 C 64.367188 18.722656 64.347656 18.765625 64.328125 18.8125 C 64.304688 18.855469 64.285156 18.898438 64.265625 18.945312 C 64.117188 19.234375 63.945312 19.484375 63.730469 19.726562 C 63.707031 19.757812 63.6875 19.78125 63.660156 19.8125 C 62.867188 20.6875 61.460938 20.945312 60.351562 21.085938 C 60.328125 21.085938 60.296875 21.085938 60.273438 21.085938 C 60.34375 21.609375 60.523438 22.171875 60.945312 22.511719 C 61.351562 22.773438 61.839844 22.816406 62.304688 22.742188 C 62.90625 22.605469 63.332031 22.292969 63.671875 21.78125 C 63.726562 21.695312 63.769531 21.609375 63.8125 21.523438 C 63.890625 21.40625 63.890625 21.40625 64.019531 21.367188 C 64.070312 21.367188 64.070312 21.367188 64.128906 21.367188 C 64.320312 21.546875 64.351562 21.75 64.367188 22.003906 C 64.351562 22.734375 64.085938 23.378906 63.589844 23.90625 C 62.875 24.585938 61.863281 24.71875 60.921875 24.695312 C 60.230469 24.664062 59.617188 24.410156 59.117188 23.921875 C 58.371094 23.070312 58.039062 21.886719 58.007812 20.765625 C 58.007812 20.734375 58.003906 20.707031 58.003906 20.679688 C 57.957031 19.167969 58.296875 17.511719 59.359375 16.375 C 60.402344 15.28125 62.484375 14.972656 63.726562 15.898438 Z M 60.828125 16.890625 C 60.203125 17.757812 59.992188 18.785156 60.113281 19.847656 C 60.183594 19.9375 60.183594 19.9375 60.269531 19.933594 C 60.960938 19.859375 61.570312 19.578125 62.019531 19.035156 C 62.351562 18.585938 62.554688 18.09375 62.550781 17.53125 C 62.550781 17.5 62.554688 17.46875 62.554688 17.441406 C 62.554688 17.171875 62.492188 16.9375 62.328125 16.71875 C 62.15625 16.550781 61.992188 16.488281 61.753906 16.476562 C 61.398438 16.488281 61.058594 16.617188 60.828125 16.890625 Z M 60.828125 16.890625 "/>
<path style=" stroke:none;fill-rule:nonzero;fill:rgb(0%,45.09804%,85.09804%);fill-opacity:1;" d="M 56.566406 12.773438 C 56.625 12.773438 56.625 12.773438 56.679688 12.773438 C 56.773438 12.78125 56.773438 12.78125 56.8125 12.820312 C 56.835938 13.15625 56.804688 13.492188 56.78125 13.824219 C 56.75 14.308594 56.722656 14.792969 56.710938 15.277344 C 56.707031 15.335938 56.707031 15.335938 56.703125 15.394531 C 56.703125 15.445312 56.703125 15.445312 56.703125 15.492188 C 56.695312 15.574219 56.695312 15.574219 56.65625 15.65625 C 57.125 15.640625 57.601562 15.628906 58.085938 15.617188 C 58.179688 15.796875 58.179688 15.902344 58.125 16.09375 C 58.011719 16.378906 57.886719 16.617188 57.648438 16.8125 C 57.53125 16.851562 57.453125 16.859375 57.328125 16.859375 C 57.289062 16.859375 57.25 16.859375 57.210938 16.859375 C 57.167969 16.855469 57.125 16.855469 57.085938 16.855469 C 57.042969 16.855469 57 16.855469 56.960938 16.855469 C 56.859375 16.855469 56.757812 16.851562 56.65625 16.851562 C 56.570312 20.671875 56.570312 20.671875 56.921875 24.460938 C 56.953125 24.726562 56.953125 24.726562 56.882812 24.832031 C 56.757812 24.917969 56.609375 24.898438 56.460938 24.898438 C 56.40625 24.898438 56.40625 24.898438 56.355469 24.898438 C 55.734375 24.882812 54.925781 24.789062 54.46875 24.320312 C 54.25 23.984375 54.40625 23.335938 54.453125 22.949219 C 54.632812 21.359375 54.695312 19.769531 54.742188 18.171875 C 54.75 17.996094 54.757812 17.820312 54.761719 17.640625 C 54.769531 17.378906 54.78125 17.117188 54.789062 16.851562 C 54.757812 16.859375 54.722656 16.867188 54.691406 16.875 C 54.519531 16.898438 54.351562 16.902344 54.179688 16.902344 C 54.148438 16.90625 54.117188 16.90625 54.082031 16.90625 C 53.988281 16.90625 53.988281 16.90625 53.832031 16.890625 C 53.710938 16.703125 53.746094 16.515625 53.753906 16.292969 C 53.753906 16.25 53.757812 16.203125 53.757812 16.160156 C 53.757812 16.117188 53.761719 16.078125 53.765625 16.03125 C 53.765625 15.992188 53.765625 15.953125 53.769531 15.914062 C 53.792969 15.8125 53.792969 15.8125 53.863281 15.75 C 53.96875 15.6875 54.023438 15.679688 54.140625 15.683594 C 54.179688 15.683594 54.210938 15.683594 54.25 15.683594 C 54.304688 15.6875 54.304688 15.6875 54.359375 15.6875 C 54.398438 15.6875 54.433594 15.6875 54.472656 15.6875 C 54.5625 15.691406 54.65625 15.695312 54.75 15.695312 C 54.742188 15.652344 54.742188 15.609375 54.742188 15.566406 C 54.730469 15.410156 54.722656 15.253906 54.710938 15.09375 C 54.710938 15.027344 54.703125 14.960938 54.703125 14.890625 C 54.695312 14.796875 54.691406 14.695312 54.6875 14.601562 C 54.683594 14.570312 54.679688 14.539062 54.679688 14.507812 C 54.644531 13.851562 54.644531 13.851562 54.84375 13.578125 C 55.261719 13.117188 55.945312 12.773438 56.566406 12.773438 Z M 56.566406 12.773438 "/>
<path style=" stroke:none;fill-rule:nonzero;fill:rgb(59.215689%,69.01961%,0.392157%);fill-opacity:1;" d="M 31.613281 34.785156 C 31.859375 34.785156 32.109375 34.785156 32.367188 34.785156 C 32.5 35.109375 32.617188 35.4375 32.734375 35.765625 C 32.753906 35.820312 32.773438 35.871094 32.789062 35.921875 C 32.835938 36.050781 32.882812 36.175781 32.921875 36.304688 C 33.039062 36.1875 33.070312 36.046875 33.125 35.898438 C 33.136719 35.867188 33.148438 35.835938 33.160156 35.804688 C 33.195312 35.703125 33.230469 35.601562 33.265625 35.5 C 33.289062 35.429688 33.316406 35.359375 33.34375 35.289062 C 33.398438 35.125 33.460938 34.953125 33.523438 34.785156 C 33.769531 34.785156 34.019531 34.785156 34.273438 34.785156 C 34.273438 34.851562 34.273438 34.914062 34.273438 34.984375 C 34.238281 34.992188 34.199219 35.003906 34.160156 35.015625 C 34.117188 35.03125 34.078125 35.046875 34.039062 35.0625 C 33.976562 35.226562 34.003906 35.398438 34.019531 35.570312 C 34.023438 35.601562 34.023438 35.632812 34.027344 35.671875 C 34.03125 35.742188 34.039062 35.808594 34.042969 35.878906 C 34.054688 35.984375 34.0625 36.09375 34.070312 36.203125 C 34.074219 36.273438 34.078125 36.339844 34.085938 36.40625 C 34.085938 36.4375 34.089844 36.46875 34.09375 36.507812 C 34.101562 36.667969 34.101562 36.667969 34.15625 36.820312 C 34.257812 36.847656 34.257812 36.847656 34.355469 36.859375 C 34.355469 36.9375 34.355469 37.019531 34.355469 37.101562 C 33.941406 37.121094 33.941406 37.121094 33.523438 37.140625 C 33.523438 37.0625 33.523438 36.984375 33.523438 36.898438 C 33.570312 36.875 33.625 36.847656 33.679688 36.820312 C 33.679688 36.726562 33.683594 36.636719 33.6875 36.546875 C 33.6875 36.492188 33.6875 36.441406 33.6875 36.390625 C 33.683594 36.09375 33.636719 35.796875 33.601562 35.503906 C 33.582031 35.550781 33.5625 35.597656 33.546875 35.644531 C 33.480469 35.820312 33.414062 35.992188 33.347656 36.164062 C 33.320312 36.238281 33.289062 36.3125 33.261719 36.390625 C 33.21875 36.496094 33.179688 36.605469 33.140625 36.710938 C 33.125 36.746094 33.113281 36.78125 33.101562 36.8125 C 33.085938 36.84375 33.078125 36.875 33.0625 36.90625 C 33.054688 36.9375 33.042969 36.960938 33.03125 36.992188 C 33.003906 37.0625 33.003906 37.0625 32.964844 37.140625 C 32.898438 37.140625 32.835938 37.140625 32.765625 37.140625 C 32.75 37.101562 32.734375 37.058594 32.71875 37.015625 C 32.664062 36.859375 32.605469 36.710938 32.546875 36.554688 C 32.523438 36.488281 32.5 36.421875 32.476562 36.355469 C 32.4375 36.257812 32.40625 36.164062 32.367188 36.070312 C 32.359375 36.039062 32.347656 36.007812 32.335938 35.976562 C 32.28125 35.832031 32.226562 35.6875 32.171875 35.542969 C 32.15625 35.542969 32.140625 35.542969 32.128906 35.542969 C 32.117188 35.710938 32.101562 35.878906 32.089844 36.046875 C 32.085938 36.09375 32.082031 36.140625 32.078125 36.191406 C 32.074219 36.238281 32.070312 36.28125 32.070312 36.328125 C 32.0625 36.375 32.0625 36.414062 32.054688 36.460938 C 32.050781 36.578125 32.046875 36.699219 32.050781 36.820312 C 32.128906 36.835938 32.207031 36.847656 32.289062 36.859375 C 32.273438 36.9375 32.261719 37.019531 32.25 37.101562 C 31.875 37.121094 31.875 37.121094 31.492188 37.140625 C 31.492188 37.074219 31.492188 37.007812 31.492188 36.941406 C 31.539062 36.90625 31.539062 36.90625 31.585938 36.875 C 31.746094 36.734375 31.742188 36.578125 31.761719 36.375 C 31.765625 36.335938 31.773438 36.304688 31.773438 36.265625 C 31.789062 36.15625 31.800781 36.050781 31.8125 35.945312 C 31.8125 35.910156 31.820312 35.878906 31.824219 35.84375 C 31.84375 35.664062 31.855469 35.484375 31.851562 35.300781 C 31.851562 35.257812 31.851562 35.210938 31.851562 35.164062 C 31.851562 35.132812 31.851562 35.097656 31.851562 35.0625 C 31.757812 35.039062 31.667969 35.011719 31.570312 34.984375 C 31.585938 34.917969 31.601562 34.851562 31.613281 34.785156 Z M 31.613281 34.785156 "/>
<path style=" stroke:none;fill-rule:nonzero;fill:rgb(59.215689%,68.627453%,0.392157%);fill-opacity:1;" d="M 47.035156 34.785156 C 47.285156 34.785156 47.535156 34.785156 47.789062 34.785156 C 47.824219 34.882812 47.859375 34.976562 47.890625 35.074219 C 47.925781 35.167969 47.957031 35.257812 47.992188 35.351562 C 48.015625 35.417969 48.035156 35.484375 48.058594 35.546875 C 48.089844 35.640625 48.125 35.734375 48.15625 35.828125 C 48.164062 35.851562 48.175781 35.882812 48.1875 35.914062 C 48.234375 36.054688 48.289062 36.199219 48.347656 36.34375 C 48.492188 35.996094 48.628906 35.648438 48.757812 35.292969 C 48.773438 35.242188 48.792969 35.195312 48.8125 35.144531 C 48.855469 35.023438 48.898438 34.90625 48.945312 34.785156 C 49.195312 34.785156 49.441406 34.785156 49.699219 34.785156 C 49.6875 34.851562 49.671875 34.914062 49.660156 34.984375 C 49.539062 35.054688 49.539062 35.054688 49.421875 35.101562 C 49.4375 35.695312 49.472656 36.273438 49.539062 36.859375 C 49.617188 36.859375 49.695312 36.859375 49.78125 36.859375 C 49.765625 36.9375 49.75 37.019531 49.738281 37.101562 C 49.328125 37.121094 49.328125 37.121094 48.90625 37.140625 C 48.917969 37.0625 48.929688 36.984375 48.945312 36.898438 C 49.023438 36.84375 49.023438 36.84375 49.101562 36.820312 C 49.109375 36.507812 49.09375 36.203125 49.0625 35.894531 C 49.050781 35.75 49.039062 35.609375 49.023438 35.460938 C 48.8125 36.015625 48.601562 36.570312 48.386719 37.140625 C 48.320312 37.140625 48.257812 37.140625 48.1875 37.140625 C 48.117188 36.953125 48.046875 36.765625 47.976562 36.578125 C 47.949219 36.515625 47.925781 36.453125 47.902344 36.386719 C 47.867188 36.296875 47.832031 36.203125 47.796875 36.109375 C 47.785156 36.082031 47.773438 36.054688 47.765625 36.023438 C 47.753906 36 47.742188 35.96875 47.734375 35.945312 C 47.726562 35.921875 47.714844 35.898438 47.703125 35.875 C 47.65625 35.734375 47.601562 35.601562 47.554688 35.460938 C 47.515625 35.921875 47.476562 36.386719 47.433594 36.859375 C 47.511719 36.859375 47.589844 36.859375 47.671875 36.859375 C 47.710938 36.941406 47.710938 36.941406 47.671875 37.101562 C 47.296875 37.121094 47.296875 37.121094 46.914062 37.140625 C 46.914062 37.0625 46.914062 36.984375 46.914062 36.898438 C 46.941406 36.890625 46.964844 36.886719 46.992188 36.878906 C 47.117188 36.792969 47.125 36.683594 47.15625 36.539062 C 47.179688 36.359375 47.203125 36.171875 47.21875 35.988281 C 47.226562 35.9375 47.230469 35.890625 47.234375 35.835938 C 47.265625 35.578125 47.28125 35.324219 47.273438 35.0625 C 47.179688 35.039062 47.089844 35.011719 46.996094 34.984375 C 47.007812 34.917969 47.023438 34.851562 47.035156 34.785156 Z M 47.035156 34.785156 "/>
<path style=" stroke:none;fill-rule:nonzero;fill:rgb(59.215689%,69.01961%,0.392157%);fill-opacity:1;" d="M 52.484375 34.785156 C 52.71875 34.746094 52.960938 34.710938 53.195312 34.785156 C 53.375 34.917969 53.476562 35.132812 53.578125 35.328125 C 53.679688 35.5 53.796875 35.652344 53.910156 35.8125 C 53.953125 35.867188 53.996094 35.929688 54.039062 35.988281 C 54.125 36.109375 54.21875 36.226562 54.3125 36.34375 C 54.3125 35.90625 54.3125 35.472656 54.3125 35.023438 C 54.230469 35.023438 54.152344 35.023438 54.070312 35.023438 C 54.070312 34.945312 54.070312 34.867188 54.070312 34.785156 C 54.347656 34.785156 54.625 34.785156 54.90625 34.785156 C 54.90625 34.851562 54.90625 34.914062 54.90625 34.984375 C 54.875 34.996094 54.84375 35.007812 54.808594 35.019531 C 54.703125 35.054688 54.703125 35.054688 54.667969 35.144531 C 54.664062 35.210938 54.65625 35.273438 54.65625 35.339844 C 54.65625 35.382812 54.652344 35.421875 54.648438 35.460938 C 54.648438 35.53125 54.648438 35.53125 54.648438 35.597656 C 54.644531 35.640625 54.640625 35.6875 54.640625 35.734375 C 54.636719 35.878906 54.632812 36.023438 54.625 36.167969 C 54.621094 36.265625 54.617188 36.363281 54.617188 36.460938 C 54.605469 36.703125 54.597656 36.941406 54.585938 37.179688 C 54.46875 37.203125 54.46875 37.203125 54.351562 37.21875 C 54.320312 37.179688 54.292969 37.140625 54.265625 37.097656 C 54.042969 36.78125 53.820312 36.46875 53.601562 36.160156 C 53.578125 36.132812 53.558594 36.101562 53.539062 36.070312 C 53.515625 36.046875 53.496094 36.015625 53.476562 35.984375 C 53.449219 35.953125 53.449219 35.953125 53.421875 35.914062 C 53.320312 35.777344 53.21875 35.640625 53.117188 35.503906 C 53.101562 35.953125 53.09375 36.398438 53.078125 36.859375 C 53.171875 36.859375 53.261719 36.859375 53.355469 36.859375 C 53.355469 36.9375 53.355469 37.019531 53.355469 37.101562 C 52.945312 37.121094 52.945312 37.121094 52.523438 37.140625 C 52.523438 37.0625 52.523438 36.984375 52.523438 36.898438 C 52.554688 36.882812 52.585938 36.863281 52.617188 36.84375 C 52.652344 36.824219 52.6875 36.804688 52.71875 36.78125 C 52.742188 36.671875 52.75 36.585938 52.75 36.476562 C 52.753906 36.445312 52.753906 36.414062 52.757812 36.382812 C 52.757812 36.273438 52.757812 36.167969 52.757812 36.0625 C 52.757812 36.019531 52.757812 35.976562 52.761719 35.9375 C 52.761719 35.65625 52.761719 35.382812 52.757812 35.101562 C 52.667969 35.0625 52.578125 35.023438 52.484375 34.984375 C 52.484375 34.917969 52.484375 34.851562 52.484375 34.785156 Z M 52.484375 34.785156 "/>
<path style=" stroke:none;fill-rule:nonzero;fill:rgb(59.215689%,69.01961%,0.392157%);fill-opacity:1;" d="M 37.097656 34.785156 C 37.6875 34.71875 37.6875 34.71875 37.871094 34.859375 C 37.9375 34.953125 37.992188 35.046875 38.046875 35.148438 C 38.136719 35.304688 38.25 35.445312 38.351562 35.585938 C 38.53125 35.835938 38.710938 36.085938 38.886719 36.34375 C 38.886719 35.921875 38.886719 35.5 38.886719 35.0625 C 38.808594 35.039062 38.730469 35.011719 38.648438 34.984375 C 38.664062 34.917969 38.671875 34.851562 38.6875 34.785156 C 38.953125 34.785156 39.210938 34.785156 39.484375 34.785156 C 39.484375 34.851562 39.484375 34.914062 39.484375 34.984375 C 39.453125 35.003906 39.417969 35.023438 39.386719 35.042969 C 39.273438 35.09375 39.273438 35.09375 39.257812 35.203125 C 39.257812 35.242188 39.253906 35.28125 39.253906 35.324219 C 39.25 35.371094 39.25 35.417969 39.25 35.464844 C 39.246094 35.542969 39.246094 35.542969 39.242188 35.625 C 39.242188 35.679688 39.242188 35.742188 39.238281 35.796875 C 39.234375 36.023438 39.226562 36.242188 39.222656 36.46875 C 39.21875 36.5625 39.21875 36.65625 39.21875 36.75 C 39.214844 36.78125 39.214844 36.8125 39.214844 36.84375 C 39.210938 36.964844 39.203125 37.0625 39.164062 37.179688 C 39.066406 37.203125 39.066406 37.203125 38.96875 37.21875 C 38.742188 36.925781 38.527344 36.625 38.3125 36.320312 C 38.113281 36.03125 37.90625 35.75 37.695312 35.460938 C 37.695312 35.914062 37.695312 36.359375 37.695312 36.820312 C 37.832031 36.84375 37.832031 36.84375 37.972656 36.859375 C 37.960938 36.9375 37.945312 37.019531 37.933594 37.101562 C 37.519531 37.121094 37.519531 37.121094 37.097656 37.140625 C 37.117188 37.023438 37.117188 37.023438 37.140625 36.898438 C 37.21875 36.851562 37.21875 36.851562 37.296875 36.820312 C 37.351562 36.664062 37.347656 36.515625 37.351562 36.351562 C 37.351562 36.300781 37.351562 36.300781 37.351562 36.25 C 37.355469 36.175781 37.359375 36.101562 37.359375 36.03125 C 37.359375 35.921875 37.367188 35.808594 37.367188 35.699219 C 37.367188 35.628906 37.371094 35.558594 37.375 35.488281 C 37.375 35.453125 37.375 35.421875 37.375 35.386719 C 37.382812 35.21875 37.382812 35.21875 37.335938 35.0625 C 37.242188 35.035156 37.152344 35.007812 37.058594 34.984375 C 37.070312 34.917969 37.085938 34.851562 37.097656 34.785156 Z M 37.097656 34.785156 "/>
<path style=" stroke:none;fill-rule:nonzero;fill:rgb(59.215689%,69.01961%,0.392157%);fill-opacity:1;" d="M 19.375 34.921875 C 19.613281 35.109375 19.714844 35.320312 19.796875 35.605469 C 19.835938 36 19.792969 36.328125 19.554688 36.65625 C 19.320312 36.953125 19.039062 37.101562 18.664062 37.15625 C 18.359375 37.171875 18.054688 37.109375 17.8125 36.90625 C 17.554688 36.625 17.460938 36.324219 17.460938 35.945312 C 17.5 35.523438 17.648438 35.242188 17.96875 34.972656 C 18.371094 34.671875 18.953125 34.640625 19.375 34.921875 Z M 18.046875 35.316406 C 17.875 35.585938 17.859375 35.898438 17.917969 36.210938 C 17.988281 36.46875 18.085938 36.648438 18.308594 36.804688 C 18.496094 36.902344 18.6875 36.882812 18.890625 36.859375 C 19.113281 36.765625 19.226562 36.59375 19.328125 36.382812 C 19.429688 36.0625 19.378906 35.722656 19.25 35.421875 C 19.144531 35.242188 19.011719 35.132812 18.8125 35.0625 C 18.476562 35.023438 18.289062 35.070312 18.046875 35.316406 Z M 18.046875 35.316406 "/>
<path style=" stroke:none;fill-rule:nonzero;fill:rgb(59.215689%,69.01961%,0.392157%);fill-opacity:1;" d="M 44.09375 34.824219 C 44.15625 34.953125 44.105469 35.074219 44.078125 35.210938 C 44.070312 35.234375 44.0625 35.265625 44.058594 35.296875 C 44.046875 35.363281 44.03125 35.433594 44.015625 35.503906 C 43.898438 35.523438 43.898438 35.523438 43.773438 35.542969 C 43.773438 35.515625 43.765625 35.492188 43.765625 35.46875 C 43.753906 35.417969 43.753906 35.417969 43.742188 35.367188 C 43.738281 35.335938 43.734375 35.304688 43.726562 35.269531 C 43.703125 35.171875 43.703125 35.171875 43.578125 35.101562 C 43.300781 35.035156 43.039062 35.054688 42.78125 35.183594 C 42.601562 35.328125 42.515625 35.523438 42.492188 35.75 C 42.484375 36.078125 42.496094 36.390625 42.722656 36.648438 C 42.886719 36.796875 43.023438 36.828125 43.234375 36.828125 C 43.273438 36.828125 43.308594 36.828125 43.347656 36.828125 C 43.476562 36.820312 43.476562 36.820312 43.65625 36.78125 C 43.65625 36.59375 43.65625 36.414062 43.65625 36.222656 C 43.523438 36.222656 43.394531 36.222656 43.257812 36.222656 C 43.21875 36.101562 43.21875 36.101562 43.257812 35.945312 C 43.546875 35.945312 43.835938 35.945312 44.132812 35.945312 C 44.09375 36.140625 44.09375 36.140625 44.070312 36.214844 C 44.039062 36.375 44.058594 36.546875 44.070312 36.710938 C 44.070312 36.796875 44.070312 36.796875 44.054688 36.941406 C 43.796875 37.167969 43.355469 37.160156 43.03125 37.152344 C 42.722656 37.125 42.453125 37.023438 42.242188 36.785156 C 42.015625 36.445312 41.976562 36.070312 42.046875 35.675781 C 42.132812 35.34375 42.289062 35.113281 42.578125 34.929688 C 43.035156 34.675781 43.59375 34.6875 44.09375 34.824219 Z M 44.09375 34.824219 "/>
<path style=" stroke:none;fill-rule:nonzero;fill:rgb(59.215689%,68.627453%,0.392157%);fill-opacity:1;" d="M 25.851562 34.742188 C 25.820312 34.96875 25.796875 35.195312 25.769531 35.421875 C 25.679688 35.421875 25.585938 35.421875 25.492188 35.421875 C 25.492188 35.320312 25.492188 35.210938 25.492188 35.101562 C 25.257812 35.089844 25.019531 35.078125 24.773438 35.0625 C 24.761719 35.300781 24.75 35.539062 24.734375 35.78125 C 25.148438 35.765625 25.148438 35.765625 25.570312 35.742188 C 25.558594 35.847656 25.546875 35.953125 25.53125 36.0625 C 25.269531 36.0625 25.007812 36.0625 24.734375 36.0625 C 24.734375 36.164062 24.734375 36.265625 24.734375 36.375 C 24.734375 36.40625 24.734375 36.4375 24.734375 36.472656 C 24.734375 36.601562 24.734375 36.699219 24.773438 36.820312 C 24.867188 36.824219 24.953125 36.824219 25.039062 36.828125 C 25.117188 36.828125 25.117188 36.828125 25.191406 36.828125 C 25.328125 36.820312 25.414062 36.8125 25.53125 36.742188 C 25.578125 36.664062 25.578125 36.664062 25.601562 36.578125 C 25.617188 36.53125 25.617188 36.53125 25.632812 36.488281 C 25.640625 36.453125 25.640625 36.453125 25.648438 36.421875 C 25.726562 36.421875 25.808594 36.421875 25.890625 36.421875 C 25.863281 36.648438 25.835938 36.867188 25.808594 37.101562 C 25.234375 37.113281 24.65625 37.125 24.0625 37.140625 C 24.0625 37.0625 24.0625 36.984375 24.0625 36.898438 C 24.140625 36.859375 24.21875 36.820312 24.296875 36.78125 C 24.3125 36.203125 24.324219 35.621094 24.335938 35.023438 C 24.257812 35.023438 24.179688 35.023438 24.101562 35.023438 C 24.101562 34.945312 24.101562 34.867188 24.101562 34.785156 C 24.316406 34.78125 24.535156 34.773438 24.75 34.765625 C 24.828125 34.765625 24.898438 34.765625 24.972656 34.761719 C 25.078125 34.757812 25.1875 34.757812 25.289062 34.753906 C 25.324219 34.75 25.359375 34.75 25.390625 34.75 C 25.421875 34.75 25.453125 34.75 25.484375 34.75 C 25.511719 34.75 25.539062 34.746094 25.570312 34.746094 C 25.664062 34.742188 25.757812 34.742188 25.851562 34.742188 Z M 25.851562 34.742188 "/>
<path style=" stroke:none;fill-rule:nonzero;fill:rgb(58.823532%,68.627453%,0.392157%);fill-opacity:1;" d="M 52.003906 34.785156 C 51.992188 34.882812 51.980469 34.984375 51.96875 35.082031 C 51.960938 35.109375 51.960938 35.140625 51.957031 35.164062 C 51.929688 35.378906 51.929688 35.378906 51.882812 35.421875 C 51.804688 35.425781 51.726562 35.425781 51.648438 35.421875 C 51.640625 35.378906 51.632812 35.332031 51.628906 35.285156 C 51.625 35.152344 51.625 35.152344 51.566406 35.101562 C 51.460938 35.101562 51.351562 35.101562 51.246094 35.101562 C 51.089844 35.101562 51.089844 35.101562 50.929688 35.101562 C 50.917969 35.328125 50.90625 35.554688 50.890625 35.78125 C 51.285156 35.765625 51.285156 35.765625 51.6875 35.742188 C 51.726562 35.863281 51.726562 35.863281 51.648438 36.0625 C 51.382812 36.0625 51.121094 36.0625 50.851562 36.0625 C 50.859375 36.179688 50.863281 36.296875 50.867188 36.421875 C 50.871094 36.457031 50.875 36.492188 50.875 36.53125 C 50.875 36.578125 50.875 36.578125 50.878906 36.617188 C 50.882812 36.648438 50.882812 36.679688 50.882812 36.710938 C 50.882812 36.78125 50.882812 36.78125 50.929688 36.820312 C 51.023438 36.828125 51.109375 36.828125 51.199219 36.832031 C 51.25 36.832031 51.296875 36.835938 51.347656 36.835938 C 51.5 36.820312 51.570312 36.796875 51.6875 36.703125 C 51.742188 36.558594 51.742188 36.558594 51.765625 36.421875 C 51.859375 36.421875 51.949219 36.421875 52.046875 36.421875 C 52.007812 36.648438 51.964844 36.867188 51.925781 37.101562 C 51.347656 37.113281 50.773438 37.125 50.175781 37.140625 C 50.195312 37.023438 50.195312 37.023438 50.214844 36.898438 C 50.3125 36.851562 50.3125 36.851562 50.414062 36.820312 C 50.460938 36.730469 50.460938 36.679688 50.460938 36.578125 C 50.460938 36.546875 50.460938 36.511719 50.460938 36.476562 C 50.460938 36.4375 50.460938 36.40625 50.460938 36.367188 C 50.460938 36.328125 50.460938 36.292969 50.457031 36.253906 C 50.457031 36.132812 50.457031 36.015625 50.457031 35.898438 C 50.457031 35.816406 50.457031 35.734375 50.457031 35.65625 C 50.453125 35.460938 50.453125 35.261719 50.453125 35.0625 C 50.375 35.039062 50.296875 35.011719 50.214844 34.984375 C 50.226562 34.917969 50.242188 34.851562 50.257812 34.785156 C 50.472656 34.777344 50.6875 34.773438 50.90625 34.765625 C 50.980469 34.765625 51.054688 34.761719 51.128906 34.757812 C 51.234375 34.757812 51.34375 34.75 51.445312 34.75 C 51.480469 34.75 51.515625 34.75 51.546875 34.746094 C 51.703125 34.742188 51.851562 34.742188 52.003906 34.785156 Z M 52.003906 34.785156 "/>
<path style=" stroke:none;fill-rule:nonzero;fill:rgb(59.215689%,68.627453%,0.392157%);fill-opacity:1;" d="M 40.992188 34.742188 C 41.007812 34.789062 41.023438 34.835938 41.035156 34.882812 C 41.085938 35.046875 41.136719 35.21875 41.1875 35.382812 C 41.210938 35.460938 41.234375 35.53125 41.257812 35.601562 C 41.402344 36.257812 41.402344 36.257812 41.710938 36.820312 C 41.773438 36.851562 41.84375 36.875 41.90625 36.898438 C 41.894531 36.96875 41.882812 37.03125 41.867188 37.101562 C 41.375 37.121094 41.375 37.121094 40.875 37.140625 C 40.835938 37.023438 40.835938 37.023438 40.875 36.898438 C 41.015625 36.851562 41.015625 36.851562 41.152344 36.820312 C 41.140625 36.765625 41.128906 36.707031 41.117188 36.648438 C 41.109375 36.617188 41.101562 36.585938 41.09375 36.554688 C 41.074219 36.453125 41.074219 36.453125 41.03125 36.34375 C 40.8125 36.34375 40.585938 36.34375 40.359375 36.34375 C 40.332031 36.398438 40.304688 36.453125 40.277344 36.515625 C 40.265625 36.546875 40.25 36.578125 40.234375 36.609375 C 40.191406 36.703125 40.191406 36.703125 40.199219 36.820312 C 40.328125 36.847656 40.460938 36.875 40.59375 36.898438 C 40.585938 36.96875 40.570312 37.03125 40.554688 37.101562 C 40.226562 37.101562 39.898438 37.101562 39.5625 37.101562 C 39.582031 36.984375 39.582031 36.984375 39.601562 36.859375 C 39.667969 36.820312 39.734375 36.78125 39.800781 36.742188 C 39.863281 36.640625 39.863281 36.640625 39.90625 36.523438 C 39.921875 36.476562 39.9375 36.433594 39.960938 36.390625 C 39.984375 36.316406 39.984375 36.316406 40.011719 36.242188 C 40.03125 36.195312 40.050781 36.148438 40.070312 36.101562 C 40.125 35.953125 40.179688 35.808594 40.238281 35.664062 C 40.285156 35.542969 40.332031 35.421875 40.378906 35.304688 C 40.40625 35.238281 40.429688 35.171875 40.460938 35.101562 C 40.546875 34.875 40.546875 34.875 40.636719 34.785156 C 40.761719 34.75 40.863281 34.742188 40.992188 34.742188 Z M 40.675781 35.265625 C 40.585938 35.527344 40.492188 35.789062 40.398438 36.0625 C 40.59375 36.0625 40.789062 36.0625 40.992188 36.0625 C 40.914062 35.796875 40.835938 35.535156 40.757812 35.265625 C 40.726562 35.265625 40.703125 35.265625 40.675781 35.265625 Z M 40.675781 35.265625 "/>
<path style=" stroke:none;fill-rule:nonzero;fill:rgb(59.215689%,69.01961%,0.392157%);fill-opacity:1;" d="M 59.398438 34.742188 C 59.414062 34.789062 59.425781 34.835938 59.4375 34.882812 C 59.492188 35.058594 59.539062 35.234375 59.59375 35.40625 C 59.617188 35.480469 59.636719 35.554688 59.660156 35.628906 C 59.691406 35.738281 59.722656 35.84375 59.757812 35.953125 C 59.765625 35.984375 59.773438 36.019531 59.785156 36.054688 C 59.84375 36.257812 59.921875 36.460938 60.003906 36.660156 C 60.03125 36.742188 60.03125 36.742188 60.03125 36.820312 C 60.125 36.847656 60.21875 36.875 60.3125 36.898438 C 60.296875 36.96875 60.285156 37.03125 60.273438 37.101562 C 59.78125 37.121094 59.78125 37.121094 59.28125 37.140625 C 59.265625 37.074219 59.25 37.007812 59.238281 36.941406 C 59.34375 36.898438 59.449219 36.859375 59.554688 36.820312 C 59.515625 36.664062 59.476562 36.503906 59.4375 36.34375 C 59.214844 36.34375 58.992188 36.34375 58.761719 36.34375 C 58.734375 36.398438 58.710938 36.453125 58.679688 36.515625 C 58.667969 36.546875 58.652344 36.578125 58.640625 36.609375 C 58.59375 36.703125 58.59375 36.703125 58.601562 36.820312 C 58.71875 36.847656 58.839844 36.875 58.960938 36.898438 C 58.960938 36.96875 58.960938 37.03125 58.960938 37.101562 C 58.632812 37.101562 58.304688 37.101562 57.96875 37.101562 C 57.984375 36.984375 57.984375 36.984375 58.007812 36.859375 C 58.039062 36.84375 58.070312 36.824219 58.101562 36.804688 C 58.246094 36.71875 58.28125 36.59375 58.339844 36.441406 C 58.359375 36.398438 58.359375 36.398438 58.375 36.351562 C 58.414062 36.257812 58.445312 36.164062 58.484375 36.066406 C 58.507812 36.003906 58.53125 35.945312 58.554688 35.882812 C 58.691406 35.53125 58.691406 35.53125 58.820312 35.1875 C 58.835938 35.140625 58.851562 35.09375 58.867188 35.042969 C 58.882812 35 58.898438 34.960938 58.914062 34.921875 C 58.960938 34.824219 58.960938 34.824219 59.101562 34.75 C 59.203125 34.746094 59.296875 34.742188 59.398438 34.742188 Z M 59.078125 35.265625 C 58.988281 35.527344 58.898438 35.789062 58.800781 36.0625 C 58.984375 36.0625 59.171875 36.0625 59.359375 36.0625 C 59.3125 35.777344 59.234375 35.527344 59.117188 35.265625 C 59.109375 35.265625 59.09375 35.265625 59.078125 35.265625 Z M 59.078125 35.265625 "/>
<path style=" stroke:none;fill-rule:nonzero;fill:rgb(59.215689%,68.627453%,0.392157%);fill-opacity:1;" d="M 35.945312 34.742188 C 35.960938 34.792969 35.976562 34.84375 35.992188 34.890625 C 36.046875 35.078125 36.101562 35.257812 36.15625 35.441406 C 36.179688 35.519531 36.203125 35.601562 36.226562 35.679688 C 36.265625 35.789062 36.296875 35.90625 36.335938 36.019531 C 36.34375 36.054688 36.355469 36.089844 36.367188 36.125 C 36.476562 36.550781 36.476562 36.550781 36.75 36.863281 C 36.789062 36.875 36.820312 36.890625 36.859375 36.898438 C 36.859375 36.96875 36.859375 37.03125 36.859375 37.101562 C 36.519531 37.113281 36.179688 37.125 35.828125 37.140625 C 35.777344 37.039062 35.796875 37.003906 35.828125 36.898438 C 35.917969 36.875 36.007812 36.847656 36.105469 36.820312 C 36.101562 36.796875 36.09375 36.773438 36.085938 36.75 C 36.078125 36.71875 36.070312 36.683594 36.0625 36.648438 C 36.054688 36.617188 36.050781 36.585938 36.042969 36.554688 C 36.023438 36.460938 36.023438 36.460938 36.023438 36.304688 C 35.789062 36.3125 35.554688 36.328125 35.308594 36.34375 C 35.28125 36.40625 35.257812 36.46875 35.230469 36.539062 C 35.214844 36.570312 35.203125 36.609375 35.1875 36.648438 C 35.148438 36.734375 35.148438 36.734375 35.148438 36.820312 C 35.28125 36.847656 35.414062 36.875 35.546875 36.898438 C 35.535156 36.96875 35.523438 37.03125 35.507812 37.101562 C 35.179688 37.101562 34.851562 37.101562 34.515625 37.101562 C 34.53125 36.984375 34.53125 36.984375 34.554688 36.859375 C 34.617188 36.820312 34.6875 36.78125 34.753906 36.742188 C 34.820312 36.632812 34.820312 36.632812 34.867188 36.5 C 34.886719 36.453125 34.90625 36.40625 34.925781 36.355469 C 34.945312 36.304688 34.96875 36.25 34.984375 36.199219 C 35.007812 36.148438 35.03125 36.09375 35.046875 36.039062 C 35.179688 35.71875 35.304688 35.394531 35.425781 35.070312 C 35.46875 34.953125 35.5 34.875 35.585938 34.785156 C 35.710938 34.75 35.8125 34.742188 35.945312 34.742188 Z M 35.667969 35.265625 C 35.472656 35.648438 35.472656 35.648438 35.390625 36.0625 C 35.570312 36.0625 35.757812 36.0625 35.945312 36.0625 C 35.867188 35.796875 35.789062 35.535156 35.707031 35.265625 C 35.695312 35.265625 35.679688 35.265625 35.667969 35.265625 Z M 35.667969 35.265625 "/>
<path style=" stroke:none;fill-rule:nonzero;fill:rgb(59.215689%,69.01961%,0.392157%);fill-opacity:1;" d="M 46.4375 34.742188 C 46.433594 34.820312 46.429688 34.898438 46.421875 34.96875 C 46.417969 35.015625 46.414062 35.054688 46.414062 35.101562 C 46.398438 35.210938 46.382812 35.3125 46.359375 35.421875 C 46.28125 35.421875 46.203125 35.421875 46.121094 35.421875 C 46.09375 35.320312 46.070312 35.210938 46.042969 35.101562 C 45.820312 35.089844 45.59375 35.078125 45.367188 35.0625 C 45.367188 35.257812 45.367188 35.257812 45.367188 35.445312 C 45.371094 35.570312 45.367188 35.664062 45.328125 35.78125 C 45.742188 35.765625 45.742188 35.765625 46.164062 35.742188 C 46.164062 35.984375 46.164062 35.984375 46.121094 36.0625 C 45.859375 36.0625 45.597656 36.0625 45.328125 36.0625 C 45.328125 36.3125 45.328125 36.5625 45.328125 36.820312 C 45.421875 36.820312 45.515625 36.824219 45.609375 36.828125 C 45.640625 36.828125 45.671875 36.828125 45.703125 36.828125 C 45.859375 36.828125 45.984375 36.820312 46.121094 36.742188 C 46.171875 36.664062 46.171875 36.664062 46.195312 36.578125 C 46.207031 36.53125 46.207031 36.53125 46.21875 36.488281 C 46.230469 36.453125 46.230469 36.453125 46.242188 36.421875 C 46.320312 36.421875 46.398438 36.421875 46.476562 36.421875 C 46.472656 36.5 46.46875 36.570312 46.460938 36.648438 C 46.460938 36.691406 46.453125 36.734375 46.453125 36.777344 C 46.4375 36.898438 46.4375 36.898438 46.398438 37.101562 C 45.820312 37.113281 45.246094 37.125 44.648438 37.140625 C 44.648438 37.0625 44.648438 36.984375 44.648438 36.898438 C 44.6875 36.890625 44.726562 36.878906 44.765625 36.867188 C 44.828125 36.84375 44.828125 36.84375 44.890625 36.820312 C 44.925781 36.710938 44.933594 36.648438 44.933594 36.539062 C 44.933594 36.503906 44.933594 36.472656 44.933594 36.4375 C 44.933594 36.402344 44.933594 36.367188 44.933594 36.332031 C 44.933594 36.277344 44.933594 36.277344 44.933594 36.222656 C 44.929688 36.105469 44.929688 35.992188 44.929688 35.875 C 44.929688 35.796875 44.929688 35.71875 44.929688 35.640625 C 44.929688 35.445312 44.929688 35.257812 44.929688 35.0625 C 44.8125 35.046875 44.8125 35.046875 44.691406 35.023438 C 44.703125 34.945312 44.71875 34.867188 44.730469 34.785156 C 44.941406 34.78125 45.152344 34.773438 45.367188 34.765625 C 45.4375 34.765625 45.507812 34.765625 45.578125 34.761719 C 45.683594 34.757812 45.789062 34.757812 45.890625 34.753906 C 45.921875 34.75 45.953125 34.75 45.988281 34.75 C 46.140625 34.746094 46.289062 34.742188 46.4375 34.742188 Z M 46.4375 34.742188 "/>
<path style=" stroke:none;fill-rule:nonzero;fill:rgb(59.215689%,69.01961%,0.392157%);fill-opacity:1;" d="M 17.023438 34.824219 C 16.984375 35.285156 16.984375 35.285156 16.945312 35.503906 C 16.828125 35.523438 16.828125 35.523438 16.707031 35.542969 C 16.703125 35.515625 16.699219 35.488281 16.695312 35.460938 C 16.6875 35.421875 16.683594 35.386719 16.675781 35.347656 C 16.671875 35.3125 16.664062 35.273438 16.660156 35.238281 C 16.632812 35.140625 16.632812 35.140625 16.554688 35.09375 C 16.371094 35.03125 16.210938 35.039062 16.03125 35.109375 C 15.945312 35.179688 15.945312 35.179688 15.90625 35.28125 C 15.898438 35.390625 15.898438 35.390625 15.992188 35.476562 C 16.132812 35.601562 16.28125 35.679688 16.445312 35.765625 C 16.710938 35.890625 16.898438 36.015625 17.0625 36.261719 C 17.082031 36.484375 17.070312 36.628906 16.945312 36.820312 C 16.710938 37.0625 16.449219 37.148438 16.113281 37.15625 C 15.882812 37.148438 15.6875 37.101562 15.476562 37.023438 C 15.46875 36.777344 15.476562 36.542969 15.515625 36.304688 C 15.59375 36.304688 15.671875 36.304688 15.75 36.304688 C 15.757812 36.347656 15.757812 36.347656 15.765625 36.394531 C 15.773438 36.4375 15.777344 36.476562 15.785156 36.515625 C 15.792969 36.578125 15.792969 36.578125 15.804688 36.636719 C 15.824219 36.753906 15.824219 36.753906 15.953125 36.820312 C 16.179688 36.851562 16.367188 36.859375 16.5625 36.734375 C 16.632812 36.628906 16.632812 36.628906 16.632812 36.519531 C 16.53125 36.300781 16.296875 36.203125 16.089844 36.101562 C 15.863281 35.984375 15.660156 35.882812 15.515625 35.664062 C 15.484375 35.453125 15.488281 35.277344 15.578125 35.085938 C 15.96875 34.664062 16.507812 34.6875 17.023438 34.824219 Z M 17.023438 34.824219 "/>
<path style=" stroke:none;fill-rule:nonzero;fill:rgb(59.215689%,69.01961%,0.392157%);fill-opacity:1;" d="M 60.589844 34.785156 C 60.757812 34.78125 60.929688 34.78125 61.101562 34.777344 C 61.15625 34.777344 61.214844 34.773438 61.273438 34.773438 C 61.988281 34.761719 61.988281 34.761719 62.203125 34.960938 C 62.351562 35.128906 62.394531 35.273438 62.390625 35.496094 C 62.355469 35.769531 62.191406 35.957031 61.984375 36.125 C 61.738281 36.296875 61.472656 36.269531 61.1875 36.261719 C 61.199219 36.460938 61.210938 36.65625 61.226562 36.859375 C 61.332031 36.859375 61.4375 36.859375 61.546875 36.859375 C 61.585938 36.941406 61.585938 36.941406 61.546875 37.101562 C 61.054688 37.121094 61.054688 37.121094 60.550781 37.140625 C 60.550781 37.074219 60.550781 37.007812 60.550781 36.941406 C 60.589844 36.917969 60.628906 36.898438 60.667969 36.875 C 60.792969 36.796875 60.792969 36.796875 60.8125 36.699219 C 60.820312 36.59375 60.820312 36.488281 60.820312 36.382812 C 60.820312 36.320312 60.820312 36.320312 60.820312 36.265625 C 60.824219 36.140625 60.824219 36.015625 60.824219 35.890625 C 60.824219 35.808594 60.828125 35.726562 60.828125 35.640625 C 60.828125 35.4375 60.828125 35.230469 60.828125 35.023438 C 60.75 35.023438 60.671875 35.023438 60.589844 35.023438 C 60.589844 34.945312 60.589844 34.867188 60.589844 34.785156 Z M 61.265625 35.023438 C 61.234375 35.144531 61.222656 35.25 61.222656 35.375 C 61.222656 35.410156 61.222656 35.445312 61.222656 35.484375 C 61.222656 35.515625 61.226562 35.554688 61.226562 35.59375 C 61.226562 35.632812 61.226562 35.667969 61.226562 35.707031 C 61.226562 35.796875 61.226562 35.890625 61.226562 35.984375 C 61.5 36.03125 61.5 36.03125 61.757812 35.960938 C 61.890625 35.835938 61.976562 35.730469 61.984375 35.542969 C 61.96875 35.355469 61.925781 35.234375 61.78125 35.101562 C 61.609375 35.035156 61.453125 35.015625 61.265625 35.023438 Z M 61.265625 35.023438 "/>
<path style=" stroke:none;fill-rule:nonzero;fill:rgb(59.215689%,69.01961%,0.392157%);fill-opacity:1;" d="M 22.113281 34.824219 C 22.164062 34.976562 22.140625 35.09375 22.117188 35.25 C 22.109375 35.296875 22.101562 35.34375 22.09375 35.390625 C 22.070312 35.503906 22.070312 35.503906 22.03125 35.542969 C 21.953125 35.546875 21.875 35.546875 21.796875 35.542969 C 21.789062 35.515625 21.785156 35.492188 21.78125 35.46875 C 21.773438 35.417969 21.773438 35.417969 21.761719 35.367188 C 21.757812 35.335938 21.75 35.304688 21.742188 35.269531 C 21.71875 35.171875 21.71875 35.171875 21.59375 35.101562 C 21.34375 35.035156 21.109375 35.0625 20.882812 35.183594 C 20.710938 35.320312 20.640625 35.492188 20.601562 35.703125 C 20.570312 36.03125 20.617188 36.335938 20.792969 36.617188 C 20.957031 36.773438 21.097656 36.828125 21.320312 36.835938 C 21.484375 36.828125 21.589844 36.820312 21.714844 36.703125 C 21.765625 36.609375 21.808594 36.515625 21.851562 36.421875 C 21.914062 36.34375 21.914062 36.34375 22.058594 36.3125 C 22.101562 36.308594 22.148438 36.304688 22.191406 36.304688 C 22.179688 36.414062 22.167969 36.523438 22.152344 36.632812 C 22.148438 36.664062 22.148438 36.695312 22.140625 36.726562 C 22.128906 36.820312 22.117188 36.898438 22.070312 36.980469 C 21.972656 37.050781 21.875 37.078125 21.753906 37.101562 C 21.714844 37.109375 21.671875 37.117188 21.632812 37.125 C 21.21875 37.175781 20.832031 37.164062 20.476562 36.921875 C 20.246094 36.71875 20.148438 36.445312 20.109375 36.140625 C 20.09375 35.773438 20.179688 35.453125 20.417969 35.164062 C 20.890625 34.675781 21.492188 34.6875 22.113281 34.824219 Z M 22.113281 34.824219 "/>
<path style=" stroke:none;fill-rule:nonzero;fill:rgb(59.215689%,69.01961%,0.392157%);fill-opacity:1;" d="M 62.777344 34.785156 C 62.945312 34.78125 63.117188 34.78125 63.289062 34.777344 C 63.34375 34.777344 63.40625 34.773438 63.460938 34.773438 C 63.546875 34.773438 63.628906 34.773438 63.710938 34.773438 C 63.761719 34.773438 63.8125 34.773438 63.867188 34.773438 C 64.132812 34.796875 64.308594 34.898438 64.484375 35.101562 C 64.578125 35.285156 64.558594 35.558594 64.5 35.75 C 64.367188 35.992188 64.15625 36.152344 63.902344 36.242188 C 63.726562 36.28125 63.554688 36.269531 63.375 36.261719 C 63.390625 36.539062 63.390625 36.539062 63.414062 36.820312 C 63.515625 36.835938 63.625 36.847656 63.730469 36.859375 C 63.71875 36.9375 63.703125 37.019531 63.691406 37.101562 C 63.375 37.113281 63.0625 37.125 62.734375 37.140625 C 62.734375 37.0625 62.734375 36.984375 62.734375 36.898438 C 62.769531 36.890625 62.800781 36.875 62.835938 36.867188 C 62.941406 36.832031 62.941406 36.832031 62.976562 36.742188 C 62.976562 36.6875 62.980469 36.632812 62.980469 36.578125 C 62.980469 36.546875 62.980469 36.511719 62.980469 36.476562 C 62.980469 36.4375 62.980469 36.40625 62.976562 36.367188 C 62.976562 36.328125 62.976562 36.292969 62.976562 36.253906 C 62.976562 36.132812 62.976562 36.015625 62.976562 35.898438 C 62.976562 35.816406 62.976562 35.734375 62.976562 35.65625 C 62.976562 35.460938 62.976562 35.261719 62.976562 35.0625 C 62.859375 35.046875 62.859375 35.046875 62.734375 35.023438 C 62.75 34.945312 62.765625 34.867188 62.777344 34.785156 Z M 63.414062 35.0625 C 63.40625 35.132812 63.402344 35.203125 63.398438 35.269531 C 63.398438 35.3125 63.398438 35.351562 63.394531 35.394531 C 63.394531 35.4375 63.390625 35.480469 63.390625 35.523438 C 63.390625 35.570312 63.386719 35.613281 63.382812 35.65625 C 63.382812 35.765625 63.375 35.875 63.375 35.984375 C 63.4375 35.992188 63.5 36 63.5625 36.007812 C 63.597656 36.007812 63.632812 36.015625 63.671875 36.015625 C 63.8125 36.023438 63.894531 35.984375 64.007812 35.902344 C 64.136719 35.757812 64.148438 35.617188 64.140625 35.429688 C 64.125 35.304688 64.097656 35.238281 64.007812 35.144531 C 63.859375 35.0625 63.554688 34.921875 63.414062 35.0625 Z M 63.414062 35.0625 "/>
<path style=" stroke:none;fill-rule:nonzero;fill:rgb(59.215689%,68.627453%,0.392157%);fill-opacity:1;" d="M 28.367188 34.78125 C 28.429688 34.78125 28.429688 34.78125 28.492188 34.78125 C 28.539062 34.78125 28.585938 34.78125 28.632812 34.78125 C 28.679688 34.78125 28.726562 34.78125 28.773438 34.78125 C 28.820312 34.78125 28.867188 34.78125 28.914062 34.78125 C 29.03125 34.78125 29.148438 34.78125 29.265625 34.785156 C 29.265625 34.851562 29.265625 34.914062 29.265625 34.984375 C 29.1875 35.007812 29.109375 35.039062 29.03125 35.0625 C 29.105469 35.261719 29.179688 35.453125 29.277344 35.640625 C 29.347656 35.78125 29.347656 35.78125 29.347656 35.863281 C 29.375 35.863281 29.398438 35.863281 29.425781 35.863281 C 29.4375 35.835938 29.445312 35.8125 29.453125 35.78125 C 29.519531 35.628906 29.59375 35.480469 29.671875 35.328125 C 29.6875 35.300781 29.699219 35.273438 29.714844 35.242188 C 29.75 35.167969 29.789062 35.09375 29.824219 35.023438 C 29.746094 35.011719 29.664062 35 29.585938 34.984375 C 29.597656 34.917969 29.609375 34.851562 29.625 34.785156 C 29.898438 34.785156 30.175781 34.785156 30.460938 34.785156 C 30.445312 34.863281 30.433594 34.945312 30.421875 35.023438 C 30.367188 35.046875 30.367188 35.046875 30.316406 35.070312 C 30.101562 35.1875 30.023438 35.375 29.90625 35.585938 C 29.875 35.632812 29.84375 35.679688 29.816406 35.734375 C 29.648438 36.019531 29.539062 36.226562 29.542969 36.570312 C 29.542969 36.597656 29.542969 36.625 29.542969 36.65625 C 29.546875 36.722656 29.546875 36.792969 29.546875 36.859375 C 29.648438 36.859375 29.757812 36.859375 29.863281 36.859375 C 29.851562 36.9375 29.835938 37.019531 29.824219 37.101562 C 29.332031 37.121094 29.332031 37.121094 28.828125 37.140625 C 28.828125 37.0625 28.828125 36.984375 28.828125 36.898438 C 28.867188 36.890625 28.90625 36.875 28.945312 36.867188 C 29.070312 36.835938 29.070312 36.835938 29.109375 36.742188 C 29.179688 36.300781 29 35.992188 28.789062 35.625 C 28.742188 35.539062 28.695312 35.453125 28.652344 35.367188 C 28.632812 35.335938 28.613281 35.300781 28.59375 35.265625 C 28.554688 35.183594 28.554688 35.183594 28.554688 35.101562 C 28.445312 35.078125 28.34375 35.050781 28.234375 35.023438 C 28.234375 34.957031 28.234375 34.890625 28.234375 34.824219 C 28.273438 34.785156 28.273438 34.785156 28.367188 34.78125 Z M 28.367188 34.78125 "/>
<path style=" stroke:none;fill-rule:nonzero;fill:rgb(58.823532%,68.627453%,0.392157%);fill-opacity:1;" d="M 55.179688 34.742188 C 55.210938 34.742188 55.246094 34.742188 55.28125 34.742188 C 55.320312 34.742188 55.355469 34.742188 55.394531 34.742188 C 55.4375 34.742188 55.476562 34.742188 55.515625 34.742188 C 55.558594 34.742188 55.601562 34.742188 55.640625 34.742188 C 55.773438 34.742188 55.90625 34.742188 56.039062 34.742188 C 56.132812 34.742188 56.21875 34.742188 56.3125 34.742188 C 56.53125 34.742188 56.75 34.742188 56.972656 34.742188 C 57 34.917969 57.015625 35.085938 57.015625 35.261719 C 57.015625 35.296875 57.015625 35.335938 57.015625 35.375 C 57.015625 35.40625 57.015625 35.433594 57.015625 35.460938 C 56.933594 35.460938 56.855469 35.460938 56.773438 35.460938 C 56.734375 35.34375 56.695312 35.226562 56.65625 35.101562 C 56.460938 35.0625 56.460938 35.0625 56.257812 35.023438 C 56.234375 35.480469 56.214844 35.9375 56.210938 36.394531 C 56.210938 36.429688 56.210938 36.460938 56.210938 36.496094 C 56.210938 36.664062 56.210938 36.664062 56.257812 36.820312 C 56.34375 36.839844 56.34375 36.839844 56.4375 36.84375 C 56.472656 36.851562 56.503906 36.851562 56.539062 36.855469 C 56.5625 36.859375 56.589844 36.859375 56.617188 36.859375 C 56.601562 36.9375 56.589844 37.019531 56.578125 37.101562 C 56.195312 37.101562 55.8125 37.101562 55.421875 37.101562 C 55.4375 37.035156 55.449219 36.96875 55.460938 36.898438 C 55.570312 36.859375 55.671875 36.820312 55.78125 36.78125 C 55.792969 36.203125 55.804688 35.621094 55.820312 35.023438 C 55.675781 35.050781 55.53125 35.078125 55.382812 35.101562 C 55.34375 35.222656 55.304688 35.34375 55.265625 35.460938 C 55.1875 35.460938 55.109375 35.460938 55.023438 35.460938 C 55.023438 35.234375 55.03125 35.011719 55.0625 34.785156 C 55.105469 34.742188 55.105469 34.742188 55.179688 34.742188 Z M 55.179688 34.742188 "/>
<path style=" stroke:none;fill-rule:nonzero;fill:rgb(59.215689%,69.01961%,0.392157%);fill-opacity:1;" d="M 26.246094 34.742188 C 26.511719 34.742188 26.777344 34.742188 27.042969 34.742188 C 27.132812 34.742188 27.222656 34.742188 27.3125 34.742188 C 27.445312 34.742188 27.570312 34.742188 27.703125 34.742188 C 27.742188 34.742188 27.78125 34.742188 27.828125 34.742188 C 27.863281 34.742188 27.898438 34.742188 27.9375 34.742188 C 27.972656 34.742188 28.007812 34.742188 28.039062 34.742188 C 28.117188 34.742188 28.117188 34.742188 28.15625 34.785156 C 28.164062 34.898438 28.171875 35.011719 28.179688 35.125 C 28.179688 35.15625 28.179688 35.191406 28.179688 35.226562 C 28.1875 35.304688 28.1875 35.382812 28.195312 35.460938 C 28.117188 35.460938 28.039062 35.460938 27.953125 35.460938 C 27.949219 35.4375 27.941406 35.414062 27.9375 35.386719 C 27.921875 35.355469 27.914062 35.320312 27.898438 35.289062 C 27.890625 35.257812 27.882812 35.226562 27.871094 35.1875 C 27.78125 35.082031 27.726562 35.082031 27.59375 35.058594 C 27.554688 35.054688 27.523438 35.046875 27.484375 35.039062 C 27.441406 35.03125 27.441406 35.03125 27.398438 35.023438 C 27.398438 35.273438 27.398438 35.523438 27.398438 35.773438 C 27.398438 35.859375 27.398438 35.945312 27.398438 36.027344 C 27.398438 36.148438 27.398438 36.273438 27.394531 36.390625 C 27.394531 36.429688 27.394531 36.46875 27.394531 36.507812 C 27.394531 36.542969 27.394531 36.578125 27.394531 36.617188 C 27.394531 36.664062 27.394531 36.664062 27.394531 36.710938 C 27.390625 36.78125 27.390625 36.78125 27.4375 36.820312 C 27.5 36.828125 27.5625 36.835938 27.621094 36.84375 C 27.652344 36.847656 27.6875 36.851562 27.71875 36.851562 C 27.757812 36.859375 27.757812 36.859375 27.796875 36.859375 C 27.78125 36.9375 27.773438 37.019531 27.757812 37.101562 C 27.375 37.101562 26.996094 37.101562 26.601562 37.101562 C 26.617188 37.035156 26.632812 36.96875 26.644531 36.898438 C 26.6875 36.890625 26.734375 36.875 26.78125 36.867188 C 26.828125 36.851562 26.875 36.835938 26.921875 36.820312 C 26.96875 36.730469 26.96875 36.675781 26.96875 36.574219 C 26.96875 36.539062 26.972656 36.507812 26.972656 36.46875 C 26.972656 36.433594 26.976562 36.398438 26.976562 36.359375 C 26.976562 36.320312 26.976562 36.28125 26.976562 36.242188 C 26.980469 36.121094 26.984375 36 26.984375 35.875 C 26.984375 35.796875 26.988281 35.710938 26.992188 35.632812 C 26.992188 35.429688 27 35.226562 27 35.023438 C 26.945312 35.03125 26.886719 35.03125 26.828125 35.039062 C 26.796875 35.039062 26.765625 35.046875 26.734375 35.046875 C 26.632812 35.0625 26.632812 35.0625 26.523438 35.144531 C 26.492188 35.222656 26.492188 35.222656 26.476562 35.308594 C 26.46875 35.359375 26.457031 35.410156 26.445312 35.460938 C 26.351562 35.460938 26.261719 35.460938 26.167969 35.460938 C 26.171875 35.375 26.179688 35.28125 26.183594 35.195312 C 26.1875 35.144531 26.191406 35.09375 26.195312 35.042969 C 26.203125 34.9375 26.21875 34.84375 26.246094 34.742188 Z M 26.246094 34.742188 "/>
<path style=" stroke:none;fill-rule:nonzero;fill:rgb(58.823532%,68.627453%,0.392157%);fill-opacity:1;" d="M 23.585938 34.742188 C 23.585938 34.824219 23.585938 34.902344 23.585938 34.984375 C 23.550781 34.996094 23.519531 35.007812 23.484375 35.019531 C 23.378906 35.054688 23.378906 35.054688 23.34375 35.144531 C 23.335938 35.203125 23.335938 35.257812 23.332031 35.3125 C 23.328125 35.351562 23.328125 35.382812 23.328125 35.421875 C 23.328125 35.460938 23.324219 35.496094 23.320312 35.535156 C 23.320312 35.59375 23.320312 35.59375 23.316406 35.652344 C 23.300781 36.054688 23.300781 36.460938 23.304688 36.859375 C 23.410156 36.859375 23.515625 36.859375 23.625 36.859375 C 23.609375 36.9375 23.597656 37.019531 23.585938 37.101562 C 23.09375 37.121094 23.09375 37.121094 22.589844 37.140625 C 22.609375 37.023438 22.609375 37.023438 22.628906 36.898438 C 22.726562 36.851562 22.726562 36.851562 22.828125 36.820312 C 22.875 36.730469 22.875 36.679688 22.875 36.578125 C 22.875 36.546875 22.875 36.511719 22.875 36.476562 C 22.871094 36.4375 22.871094 36.40625 22.871094 36.367188 C 22.871094 36.328125 22.871094 36.292969 22.871094 36.253906 C 22.871094 36.132812 22.871094 36.015625 22.871094 35.898438 C 22.867188 35.816406 22.867188 35.734375 22.867188 35.65625 C 22.867188 35.460938 22.867188 35.261719 22.867188 35.0625 C 22.75 35.046875 22.75 35.046875 22.628906 35.023438 C 22.628906 34.945312 22.628906 34.867188 22.628906 34.785156 C 22.773438 34.777344 22.917969 34.773438 23.0625 34.765625 C 23.101562 34.761719 23.144531 34.757812 23.1875 34.757812 C 23.226562 34.757812 23.265625 34.757812 23.304688 34.753906 C 23.34375 34.75 23.375 34.75 23.414062 34.75 C 23.46875 34.746094 23.527344 34.742188 23.585938 34.742188 Z M 23.585938 34.742188 "/>
</g>
</svg>
